PathFileType	4	(X/Y/Z)	G:\マイドライブ\biomec\experimentalData\240725\static1.trc
DataRate	CameraRate	NumFrames	NumMarkers	Units	OrigDataRate	OrigDataStartFrame	OrigNumFrames
200.00	200.00	       4	52	mm	200.00	313	       834
Frame#	Time	handR			wrRI			wrRO			elbRI			elbRO			shRF			shRU			shRB			handL			wrLI			wrLO			elbLI			elbLO			shLF			shLU			shLB			toeR			baRI			baRO			heelR			anRI			anRO			knRI			knRO			troR			toeL			baLI			baLO			heelL			anLI			anLO			knLI			knLO			troL			head			earR			earL			clav			c7			ribR			ribL			xiph			ASISR			ASISL			PSISR			PSISL			t8			t11			L1			L3			LS			COX			
		X1	Y1	Z1	X2	Y2	Z2	X3	Y3	Z3	X4	Y4	Z4	X5	Y5	Z5	X6	Y6	Z6	X7	Y7	Z7	X8	Y8	Z8	X9	Y9	Z9	X10	Y10	Z10	X11	Y11	Z11	X12	Y12	Z12	X13	Y13	Z13	X14	Y14	Z14	X15	Y15	Z15	X16	Y16	Z16	X17	Y17	Z17	X18	Y18	Z18	X19	Y19	Z19	X20	Y20	Z20	X21	Y21	Z21	X22	Y22	Z22	X23	Y23	Z23	X24	Y24	Z24	X25	Y25	Z25	X26	Y26	Z26	X27	Y27	Z27	X28	Y28	Z28	X29	Y29	Z29	X30	Y30	Z30	X31	Y31	Z31	X32	Y32	Z32	X33	Y33	Z33	X34	Y34	Z34	X35	Y35	Z35	X36	Y36	Z36	X37	Y37	Z37	X38	Y38	Z38	X39	Y39	Z39	X40	Y40	Z40	X41	Y41	Z41	X42	Y42	Z42	X43	Y43	Z43	X44	Y44	Z44	X45	Y45	Z45	X46	Y46	Z46	X47	Y47	Z47	X48	Y48	Z48	X49	Y49	Z49	X50	Y50	Z50	X51	Y51	Z51	X52	Y52	Z52	

313	1.560	485.77133	291.80875	996.00391	486.28241	381.23724	1025.08875	527.30975	347.58798	1068.14575	569.05396	574.34979	1158.93799	510.63489	550.55267	1189.58521	603.32684	721.35168	1417.49170	541.82153	701.26666	1437.48853	497.86026	711.48846	1393.15649	504.45175	1461.79382	961.68201	499.50256	1373.30347	998.85425	535.62946	1423.00171	1039.67383	545.37097	1195.48682	1146.91028	499.14801	1230.62598	1182.96252	601.06329	1047.14038	1403.99023	542.44342	1070.48572	1424.74609	491.41965	1044.55701	1378.15930	725.68958	730.25879	51.43688	643.39801	772.71759	48.18219	624.74109	651.84686	43.95365	438.67746	729.38928	40.18488	521.46198	770.54126	112.91370	506.61829	677.14935	102.04068	527.34540	795.33112	468.44315	548.63330	691.41284	476.36429	594.14221	707.11053	868.92194	725.69128	1024.82275	53.07195	649.83997	978.22119	50.77240	627.05438	1092.17029	47.41151	438.04428	1031.78809	38.08833	527.46680	985.65741	130.12489	504.10092	1073.34424	104.91057	518.46698	959.91791	471.04327	524.44342	1066.84448	483.92615	571.27350	1051.84167	853.60052	531.28333	889.03284	1703.20117	636.41589	804.35083	1568.50061	641.91711	962.49164	1567.90881	648.55530	887.90778	1393.63867	527.83582	890.69971	1471.44043	631.41791	777.62891	1095.59143	627.18042	998.17639	1092.68958	678.10101	886.19305	1234.36145	654.73944	777.46350	950.67560	643.65662	998.45001	958.52661	480.97073	818.23798	999.46124	477.70407	941.76312	1000.42694	463.14633	887.89398	1261.92517	477.98843	887.44220	1137.87537	488.92517	889.11139	1080.37158	485.14413	884.06702	1034.10400	468.04764	881.29425	996.27979	437.67429	878.62524	894.29297	
314	1.565	485.78546	291.84988	995.97131	486.32468	381.29825	1025.02673	527.32855	347.61746	1068.11389	569.07361	574.37225	1158.92480	510.66125	550.58453	1189.56543	603.31494	721.37860	1417.47339	541.81158	701.30280	1437.48730	497.85449	711.50671	1393.14856	504.44437	1461.79138	961.64032	499.51859	1373.29163	998.84821	535.64685	1422.98950	1039.65051	545.39594	1195.50549	1146.90344	499.18161	1230.63501	1182.95251	601.05774	1047.18896	1403.96936	542.43610	1070.50317	1424.75085	491.41867	1044.59583	1378.14929	725.66083	730.27008	51.44008	643.41083	772.72839	48.17699	624.72882	651.85028	43.94947	438.68033	729.39459	40.19308	521.48346	770.52216	112.92533	506.62225	677.13989	102.05375	527.37567	795.35297	468.43561	548.65845	691.42682	476.34116	594.16089	707.11359	868.92468	725.68927	1024.84814	53.05240	649.82953	978.23102	50.77584	627.06226	1092.19397	47.41650	438.04703	1031.76733	38.08183	527.47205	985.65100	130.12135	504.13635	1073.33081	104.89455	518.45886	959.92169	471.04865	524.48077	1066.87024	483.92853	571.32086	1051.87158	853.60229	531.33954	889.06311	1703.22339	636.46063	804.36511	1568.48242	641.99078	962.49469	1567.90442	648.57416	887.92694	1393.65137	527.85834	890.74640	1471.42639	631.44421	777.65588	1095.61145	627.17456	998.19305	1092.67749	678.13556	886.20758	1234.36865	654.77405	777.47595	950.68774	643.73029	998.47949	958.54419	480.98685	818.25623	999.45898	477.72217	941.79706	1000.44336	463.19406	887.92279	1261.90515	477.97556	887.46100	1137.87512	488.94443	889.14587	1080.36670	485.13107	884.09290	1034.10950	468.06937	881.30914	996.27643	437.67896	878.64746	894.30658	
315	1.570	485.78815	291.89951	995.93958	486.32272	381.34760	1025.00854	527.34399	347.66199	1068.08789	569.07556	574.40021	1158.90295	510.67484	550.62622	1189.54675	603.33307	721.40747	1417.47363	541.82019	701.32306	1437.47839	497.85852	711.52869	1393.13367	504.45380	1461.77148	961.59711	499.52426	1373.28027	998.81250	535.65967	1422.99390	1039.62463	545.44073	1195.53455	1146.92529	499.21863	1230.65601	1182.95557	601.08405	1047.22632	1404.00562	542.44843	1070.51978	1424.73914	491.41006	1044.61096	1378.14905	725.68018	730.27466	51.43175	643.40729	772.72119	48.17780	624.71954	651.85535	43.94741	438.68219	729.38147	40.18259	521.59924	770.53961	112.52170	506.63174	677.14172	102.06746	527.38776	795.34680	468.42664	548.67761	691.45001	476.36676	594.17145	707.13116	868.92651	725.69037	1024.81421	53.08393	649.83936	978.22156	50.77255	627.02533	1092.19604	47.43419	438.05090	1031.76331	38.09187	527.45282	985.65613	130.13535	504.15988	1073.33752	104.87228	518.47943	959.95282	471.07236	524.49994	1066.88855	483.93973	571.33838	1051.87268	853.60175	531.40497	889.08429	1703.23792	636.46252	804.39532	1568.49622	642.02673	962.50879	1567.89685	648.54303	887.94873	1393.63293	527.85571	890.75848	1471.43835	631.44763	777.66486	1095.59094	627.19897	998.21857	1092.69409	678.14069	886.22852	1234.36560	654.76672	777.48138	950.68237	643.76801	998.46735	958.54175	481.01971	818.27246	999.45251	477.74747	941.82446	1000.44421	463.23007	887.95984	1261.92383	478.00513	887.48175	1137.87378	489.00162	889.17230	1080.33643	485.17102	884.12726	1034.10620	468.09964	881.34644	996.25031	437.71909	878.67468	894.29956	
316	1.575	485.79929	291.93314	995.89319	486.34128	381.40665	1024.97437	527.34656	347.71719	1068.05554	569.08875	574.42627	1158.90063	510.68799	550.65991	1189.51978	603.29095	721.42981	1417.47766	541.80566	701.34839	1437.47949	497.86334	711.54517	1393.11353	504.45236	1461.74841	961.54431	499.54758	1373.27588	998.80408	535.67377	1422.99805	1039.59729	545.47119	1195.55762	1146.91589	499.22949	1230.68481	1182.95898	601.05756	1047.22131	1403.99939	542.41522	1070.51685	1424.73499	491.44736	1044.63013	1378.13147	725.68475	730.27692	51.42133	643.40845	772.72491	48.19455	624.73309	651.85767	43.94430	438.64731	729.39032	40.22057	521.42810	770.56018	112.92095	506.60583	677.14697	102.06733	527.40564	795.36279	468.43222	548.68036	691.48907	476.36646	594.19263	707.16626	868.94775	725.67267	1024.83411	53.08297	649.82788	978.23413	50.77525	627.02466	1092.20129	47.42984	438.03403	1031.76880	38.08664	527.45770	985.64862	130.14391	504.09613	1073.34351	104.91782	518.50867	959.96826	471.06824	524.51654	1066.90076	483.94223	571.38037	1051.90540	853.58923	531.45685	889.11261	1703.24792	636.47113	804.40094	1568.49670	642.03625	962.52252	1567.85657	648.55200	888.00208	1393.67468	527.83002	890.77643	1471.44348	631.47064	777.72083	1095.60522	627.19934	998.25415	1092.69446	678.12512	886.25116	1234.37732	654.78986	777.47522	950.70410	641.96375	999.34174	957.79236	481.02820	818.31378	999.44275	477.79187	941.85840	1000.44836	463.18497	887.98462	1261.92175	478.02335	887.49640	1137.87964	488.99664	889.20306	1080.37122	485.18332	884.14880	1034.08923	468.12772	881.35425	996.26605	437.74869	878.70105	894.28497	
